<?xml version="1.0" encoding="UTF-8"?>
<svg width="700pt" height="700pt" version="1.1" viewBox="0 0 700 700" xmlns="http://www.w3.org/2000/svg" xmlns:xlink="http://www.w3.org/1999/xlink">
 <defs>
  <symbol id="j" overflow="visible">
   <path d="m18.844-1.125c-0.96875 0.5-1.9805 0.875-3.0312 1.125-1.0547 0.25781-2.1523 0.39062-3.2969 0.39062-3.418 0-6.125-0.95312-8.125-2.8594-1.9922-1.9062-2.9844-4.4922-2.9844-7.7656 0-3.2695 0.99219-5.8594 2.9844-7.7656 2-1.9141 4.707-2.875 8.125-2.875 1.1445 0 2.2422 0.13281 3.2969 0.39062 1.0508 0.25 2.0625 0.63281 3.0312 1.1406v4.2344c-0.98047-0.66406-1.9492-1.1562-2.9062-1.4688-0.94922-0.3125-1.9492-0.46875-3-0.46875-1.8867 0-3.3711 0.60547-4.4531 1.8125-1.0859 1.2109-1.625 2.875-1.625 5 0 2.1172 0.53906 3.7773 1.625 4.9844 1.082 1.2109 2.5664 1.8125 4.4531 1.8125 1.0508 0 2.0508-0.14844 3-0.45312 0.95703-0.3125 1.9258-0.80469 2.9062-1.4844z"/>
  </symbol>
  <symbol id="c" overflow="visible">
   <path d="m13.781-11.188c-0.42969-0.20703-0.85547-0.35938-1.2812-0.45312-0.42969-0.09375-0.85547-0.14062-1.2812-0.14062-1.2617 0-2.2344 0.40625-2.9219 1.2188-0.67969 0.80469-1.0156 1.9609-1.0156 3.4688v7.0938h-4.9219v-15.375h4.9219v2.5156c0.625-1 1.3477-1.7266 2.1719-2.1875 0.82031-0.46875 1.8047-0.70312 2.9531-0.70312 0.15625 0 0.32812 0.011719 0.51562 0.03125 0.19531 0.011719 0.48438 0.039062 0.85938 0.078125z"/>
  </symbol>
  <symbol id="a" overflow="visible">
   <path d="m17.719-7.7344v1.4062h-11.5c0.125 1.1562 0.53906 2.0234 1.25 2.5938 0.71875 0.57422 1.7188 0.85938 3 0.85938 1.0312 0 2.0859-0.14844 3.1719-0.45312 1.082-0.3125 2.1953-0.77344 3.3438-1.3906v3.7812c-1.1562 0.4375-2.3203 0.76562-3.4844 0.98438-1.168 0.22656-2.3281 0.34375-3.4844 0.34375-2.7812 0-4.9492-0.70312-6.5-2.1094-1.543-1.4141-2.3125-3.3984-2.3125-5.9531 0-2.5078 0.75391-4.4844 2.2656-5.9219 1.5195-1.4375 3.6094-2.1562 6.2656-2.1562 2.4141 0 4.3477 0.73047 5.7969 2.1875 1.457 1.4492 2.1875 3.3906 2.1875 5.8281zm-5.0625-1.625c0-0.9375-0.27344-1.6914-0.8125-2.2656-0.54297-0.57031-1.2578-0.85938-2.1406-0.85938-0.94922 0-1.7188 0.27344-2.3125 0.8125-0.59375 0.53125-0.96484 1.3047-1.1094 2.3125z"/>
  </symbol>
  <symbol id="h" overflow="visible">
   <path d="m9.25-6.9219c-1.0234 0-1.793 0.17969-2.3125 0.53125-0.51172 0.34375-0.76562 0.85547-0.76562 1.5312 0 0.625 0.20703 1.1172 0.625 1.4688 0.41406 0.34375 0.99219 0.51562 1.7344 0.51562 0.92578 0 1.7031-0.32812 2.3281-0.98438 0.63281-0.66406 0.95312-1.5 0.95312-2.5v-0.5625zm7.5156-1.8594v8.7812h-4.9531v-2.2812c-0.65625 0.9375-1.4023 1.6211-2.2344 2.0469-0.82422 0.41406-1.8242 0.625-3 0.625-1.5938 0-2.8906-0.46094-3.8906-1.3906-0.99219-0.92578-1.4844-2.1289-1.4844-3.6094 0-1.8008 0.61719-3.125 1.8594-3.9688 1.25-0.84375 3.1953-1.2656 5.8438-1.2656h2.9062v-0.39062c0-0.76953-0.30859-1.3359-0.92188-1.7031-0.61719-0.36328-1.5742-0.54688-2.875-0.54688-1.0547 0-2.0312 0.10938-2.9375 0.32812-0.90625 0.21094-1.75 0.52344-2.5312 0.9375v-3.75c1.0625-0.25781 2.1172-0.45312 3.1719-0.57812 1.0625-0.13281 2.125-0.20312 3.1875-0.20312 2.7812 0 4.7852 0.54688 6.0156 1.6406 1.2266 1.0938 1.8438 2.8711 1.8438 5.3281z"/>
  </symbol>
  <symbol id="b" overflow="visible">
   <path d="m7.7344-19.75v4.375h5.0625v3.5156h-5.0625v6.5156c0 0.71875 0.14062 1.2031 0.42188 1.4531s0.84375 0.375 1.6875 0.375h2.5312v3.5156h-4.2188c-1.9375 0-3.3125-0.40625-4.125-1.2188s-1.2188-2.1875-1.2188-4.125v-6.5156h-2.4375v-3.5156h2.4375v-4.375z"/>
  </symbol>
  <symbol id="g" overflow="visible">
   <path d="m12.828-13.125v-8.25h4.9375v21.375h-4.9375v-2.2188c-0.67969 0.90625-1.4297 1.5703-2.25 1.9844-0.8125 0.41406-1.75 0.625-2.8125 0.625-1.8984 0-3.4531-0.75-4.6719-2.25-1.2188-1.5078-1.8281-3.4453-1.8281-5.8125 0-2.375 0.60938-4.3125 1.8281-5.8125 1.2188-1.5078 2.7734-2.2656 4.6719-2.2656 1.0625 0 2 0.21484 2.8125 0.64062 0.82031 0.42969 1.5703 1.0898 2.25 1.9844zm-3.25 9.9531c1.0625 0 1.8672-0.38281 2.4219-1.1562 0.55078-0.76953 0.82812-1.8828 0.82812-3.3438 0-1.4688-0.27734-2.5859-0.82812-3.3594-0.55469-0.76953-1.3594-1.1562-2.4219-1.1562-1.043 0-1.8398 0.38672-2.3906 1.1562-0.55469 0.77344-0.82812 1.8906-0.82812 3.3594 0 1.4609 0.27344 2.5742 0.82812 3.3438 0.55078 0.77344 1.3477 1.1562 2.3906 1.1562z"/>
  </symbol>
  <symbol id="l" overflow="visible">
   <path d="m10.547-3.1719c1.0508 0 1.8516-0.38281 2.4062-1.1562 0.55078-0.76953 0.82812-1.8828 0.82812-3.3438 0-1.4688-0.27734-2.5859-0.82812-3.3594-0.55469-0.76953-1.3555-1.1562-2.4062-1.1562-1.0547 0-1.8594 0.39062-2.4219 1.1719-0.5625 0.77344-0.84375 1.8867-0.84375 3.3438 0 1.4492 0.28125 2.5625 0.84375 3.3438 0.5625 0.77344 1.3672 1.1562 2.4219 1.1562zm-3.2656-9.9531c0.67578-0.89453 1.4258-1.5547 2.25-1.9844 0.82031-0.42578 1.7695-0.64062 2.8438-0.64062 1.8945 0 3.4531 0.75781 4.6719 2.2656 1.2188 1.5 1.8281 3.4375 1.8281 5.8125 0 2.3672-0.60938 4.3047-1.8281 5.8125-1.2188 1.5-2.7773 2.25-4.6719 2.25-1.0742 0-2.0234-0.21094-2.8438-0.625-0.82422-0.42578-1.5742-1.0859-2.25-1.9844v2.2188h-4.9219v-21.375h4.9219z"/>
  </symbol>
  <symbol id="k" overflow="visible">
   <path d="m0.34375-15.375h4.9219l4.125 10.438 3.5156-10.438h4.9219l-6.4688 16.828c-0.65625 1.7188-1.418 2.9141-2.2812 3.5938-0.86719 0.67578-2.0078 1.0156-3.4219 1.0156h-2.8438v-3.2188h1.5469c0.83203 0 1.4375-0.13672 1.8125-0.40625 0.38281-0.26172 0.67969-0.73438 0.89062-1.4219l0.14062-0.42188z"/>
  </symbol>
  <symbol id="f" overflow="visible">
   <path d="m2.3594-21.375h4.9219v21.375h-4.9219z"/>
  </symbol>
  <symbol id="v" overflow="visible">
   <path d="m17.719-7.7344v1.4062h-11.5c0.125 1.1562 0.53906 2.0234 1.25 2.5938 0.71875 0.57422 1.7188 0.85938 3 0.85938 1.0312 0 2.0859-0.14844 3.1719-0.45312 1.082-0.3125 2.1953-0.77344 3.3438-1.3906v3.7812c-1.1562 0.4375-2.3203 0.76562-3.4844 0.98438-1.168 0.22656-2.3281 0.34375-3.4844 0.34375-2.7812 0-4.9492-0.70312-6.5-2.1094-1.543-1.4141-2.3125-3.3984-2.3125-5.9531 0-2.5078 0.75391-4.4844 2.2656-5.9219 1.5195-1.4375 3.6094-2.1562 6.2656-2.1562 2.4141 0 4.3477 0.73047 5.7969 2.1875 1.457 1.4492 2.1875 3.3906 2.1875 5.8281zm-5.0625-1.625c0-0.9375-0.27344-1.6914-0.8125-2.2656-0.54297-0.57031-1.2578-0.85938-2.1406-0.85938-0.94922 0-1.7188 0.27344-2.3125 0.8125-0.59375 0.53125-0.96484 1.3047-1.1094 2.3125zm-0.76562-13.141h3.875l-5.0625 5.1719h-2.6875z"/>
  </symbol>
  <symbol id="i" overflow="visible">
   <path d="m16.609-12.828c0.625-0.94531 1.3633-1.6719 2.2188-2.1719 0.86328-0.5 1.8047-0.75 2.8281-0.75 1.7695 0 3.1133 0.54688 4.0312 1.6406 0.92578 1.0859 1.3906 2.668 1.3906 4.75v9.3594h-4.9375v-8.0156c0.007813-0.125 0.015625-0.25 0.015625-0.375 0.007812-0.125 0.015625-0.30469 0.015625-0.54688 0-1.0938-0.16406-1.8828-0.48438-2.375-0.32422-0.48828-0.84375-0.73438-1.5625-0.73438-0.92969 0-1.6484 0.38672-2.1562 1.1562-0.51172 0.77344-0.77344 1.8867-0.78125 3.3438v7.5469h-4.9531v-8.0156c0-1.707-0.14844-2.8047-0.4375-3.2969-0.29297-0.48828-0.8125-0.73438-1.5625-0.73438-0.94922 0-1.6797 0.39062-2.1875 1.1719-0.51172 0.77344-0.76562 1.875-0.76562 3.3125v7.5625h-4.9531v-15.375h4.9531v2.25c0.60156-0.875 1.2969-1.5312 2.0781-1.9688s1.6445-0.65625 2.5938-0.65625c1.0625 0 2 0.25781 2.8125 0.76562 0.8125 0.51172 1.4258 1.2305 1.8438 2.1562z"/>
  </symbol>
  <symbol id="e" overflow="visible">
   <path d="m17.828-9.3594v9.3594h-4.9531v-7.1719c0-1.3203-0.03125-2.2344-0.09375-2.7344-0.054688-0.50781-0.15234-0.88281-0.29688-1.125-0.19922-0.32031-0.46484-0.57031-0.79688-0.75-0.32422-0.17578-0.69531-0.26562-1.1094-0.26562-1.0312 0-1.8398 0.39844-2.4219 1.1875-0.58594 0.79297-0.875 1.8906-0.875 3.2969v7.5625h-4.9219v-15.375h4.9219v2.25c0.73828-0.89453 1.5234-1.5547 2.3594-1.9844 0.83203-0.42578 1.7539-0.64062 2.7656-0.64062 1.7695 0 3.1133 0.54688 4.0312 1.6406 0.92578 1.0859 1.3906 2.668 1.3906 4.75z"/>
  </symbol>
  <symbol id="u" overflow="visible">
   <path d="m15.031-3.7344h-8.2812l-1.2969 3.7344h-5.3125l7.5938-20.5h6.2969l7.5938 20.5h-5.3125zm-6.9531-3.8125h5.6094l-2.7969-8.1562z"/>
  </symbol>
  <symbol id="t" overflow="visible">
   <path d="m6.25-7.875-5.5469-7.5h5.2031l3.1406 4.5469 3.1875-4.5469h5.2031l-5.5469 7.4844 5.8281 7.8906h-5.2031l-3.4688-4.8594-3.4219 4.8594h-5.2031z"/>
  </symbol>
  <symbol id="s" overflow="visible">
   <path d="m12.484-21.375v3.2344h-2.7188c-0.69922 0-1.1875 0.125-1.4688 0.375-0.27344 0.25-0.40625 0.6875-0.40625 1.3125v1.0781h4.2031v3.5156h-4.2031v11.859h-4.9062v-11.859h-2.4531v-3.5156h2.4531v-1.0781c0-1.6758 0.46094-2.9141 1.3906-3.7188 0.9375-0.80078 2.3828-1.2031 4.3438-1.2031z"/>
  </symbol>
  <symbol id="d" overflow="visible">
   <path d="m9.6875-12.234c-1.0938 0-1.9297 0.39062-2.5 1.1719-0.57422 0.78125-0.85938 1.9141-0.85938 3.3906 0 1.4688 0.28516 2.5938 0.85938 3.375 0.57031 0.78125 1.4062 1.1719 2.5 1.1719 1.0625 0 1.875-0.39062 2.4375-1.1719 0.57031-0.78125 0.85938-1.9062 0.85938-3.375 0-1.4766-0.28906-2.6094-0.85938-3.3906-0.5625-0.78125-1.375-1.1719-2.4375-1.1719zm0-3.5156c2.6445 0 4.707 0.71484 6.1875 2.1406 1.4883 1.4297 2.2344 3.4062 2.2344 5.9375 0 2.5234-0.74609 4.4961-2.2344 5.9219-1.4805 1.4297-3.543 2.1406-6.1875 2.1406-2.6562 0-4.7344-0.71094-6.2344-2.1406-1.5-1.4258-2.25-3.3984-2.25-5.9219 0-2.5312 0.75-4.5078 2.25-5.9375 1.5-1.4258 3.5781-2.1406 6.2344-2.1406z"/>
  </symbol>
  <symbol id="r" overflow="visible">
   <path d="m17.828-9.3594v9.3594h-4.9531v-7.1406c0-1.3438-0.03125-2.2656-0.09375-2.7656-0.054688-0.50781-0.15234-0.88281-0.29688-1.125-0.19922-0.32031-0.46484-0.57031-0.79688-0.75-0.32422-0.17578-0.69531-0.26562-1.1094-0.26562-1.0312 0-1.8398 0.39844-2.4219 1.1875-0.58594 0.79297-0.875 1.8906-0.875 3.2969v7.5625h-4.9219v-21.375h4.9219v8.25c0.73828-0.89453 1.5234-1.5547 2.3594-1.9844 0.83203-0.42578 1.7539-0.64062 2.7656-0.64062 1.7695 0 3.1133 0.54688 4.0312 1.6406 0.92578 1.0859 1.3906 2.668 1.3906 4.75z"/>
  </symbol>
  <symbol id="q" overflow="visible">
   <path d="m2.5781-20.5h5.9062l7.4531 14.062v-14.062h5.0156v20.5h-5.9062l-7.4531-14.062v14.062h-5.0156z"/>
  </symbol>
  <symbol id="p" overflow="visible">
   <path d="m2.2031-5.9844v-9.3906h4.9375v1.5312c0 0.83594-0.007813 1.8828-0.015625 3.1406-0.011719 1.2617-0.015625 2.1016-0.015625 2.5156 0 1.2422 0.03125 2.1328 0.09375 2.6719 0.070313 0.54297 0.1875 0.9375 0.34375 1.1875 0.19531 0.32422 0.45703 0.57422 0.78125 0.75 0.32031 0.16797 0.69531 0.25 1.125 0.25 1.0195 0 1.8203-0.39062 2.4062-1.1719 0.59375-0.78906 0.89062-1.8828 0.89062-3.2812v-7.5938h4.9062v15.375h-4.9062v-2.2188c-0.75 0.89844-1.543 1.5586-2.375 1.9844-0.82422 0.41406-1.7305 0.625-2.7188 0.625-1.7812 0-3.1367-0.53906-4.0625-1.625-0.92969-1.0938-1.3906-2.6758-1.3906-4.75z"/>
  </symbol>
  <symbol id="o" overflow="visible">
   <path d="m2.5781-20.5h8.7812c2.6016 0 4.6016 0.57812 6 1.7344 1.3945 1.1562 2.0938 2.8086 2.0938 4.9531 0 2.1484-0.69922 3.8047-2.0938 4.9688-1.3984 1.1562-3.3984 1.7344-6 1.7344h-3.4844v7.1094h-5.2969zm5.2969 3.8281v5.7344h2.9219c1.0195 0 1.8047-0.25 2.3594-0.75 0.5625-0.5 0.84375-1.207 0.84375-2.125 0-0.91406-0.28125-1.6172-0.84375-2.1094-0.55469-0.5-1.3398-0.75-2.3594-0.75z"/>
  </symbol>
  <symbol id="n" overflow="visible">
   <path d="m2.3594-15.375h4.9219v15.094c0 2.0625-0.49609 3.6328-1.4844 4.7188-0.99219 1.082-2.4219 1.625-4.2969 1.625h-2.4375v-3.2188h0.85938c0.92578 0 1.5625-0.21484 1.9062-0.64062 0.35156-0.41797 0.53125-1.2461 0.53125-2.4844zm0-6h4.9219v4.0156h-4.9219z"/>
  </symbol>
  <symbol id="m" overflow="visible">
   <path d="m14.797-14.906v4.0156c-0.67969-0.45703-1.3555-0.79688-2.0312-1.0156-0.66797-0.21875-1.3594-0.32812-2.0781-0.32812-1.375 0-2.4492 0.40234-3.2188 1.2031-0.76172 0.80469-1.1406 1.9219-1.1406 3.3594s0.37891 2.5586 1.1406 3.3594c0.76953 0.79297 1.8438 1.1875 3.2188 1.1875 0.76953 0 1.5-0.10938 2.1875-0.32812 0.6875-0.22656 1.3281-0.57031 1.9219-1.0312v4.0312c-0.77344 0.28125-1.5547 0.48828-2.3438 0.625-0.79297 0.14453-1.5898 0.21875-2.3906 0.21875-2.7734 0-4.9453-0.70703-6.5156-2.125-1.5625-1.4258-2.3438-3.4062-2.3438-5.9375 0-2.5391 0.78125-4.5195 2.3438-5.9375 1.5703-1.4258 3.7422-2.1406 6.5156-2.1406 0.8125 0 1.6094 0.074219 2.3906 0.21875 0.78125 0.13672 1.5625 0.34375 2.3438 0.625z"/>
  </symbol>
 </defs>
 <g>
  <path d="m626.61 150.83c-18.133-73.594-87.734-135.43-165.09-146.98-9.0781-1.6484-23.039-3.8438-39.57-3.8438-45.387 0-108.81 17.027-153.4 98.07-19.129 29.523-31.055 62.117-35.457 96.879-0.86719 6.8672 3.7812 13.215 10.59 14.445 6.8281 1.25 13.395-3.0664 14.996-9.793 8.1445-34.199 18.984-63.855 32.238-88.152 33.633-51.402 87.629-84.594 137.7-84.594 30.223 0 55.801 12.453 73.961 36.016 39.234 50.898 42.176 149.84 8.293 278.59-1.4062 5.3281 0.69922 10.965 5.2578 14.074 2.2148 1.5117 4.7773 2.2539 7.3359 2.2539 2.6992 0 5.3984-0.83203 7.6875-2.5078 107.52-78.668 105.95-161.86 95.453-204.45z" fill="#010101"/>
  <path d="m345.95 454.82c-3.2852 10.367-6.5195 17.09-6.5195 17.09-5.2812 13.121-20.203 19.48-33.32 14.191-13.121-5.2812-19.473-20.211-14.191-33.328 0.34766-0.86719 0.74219-1.7148 1.1797-2.5312 0 0 4.8438-10.93 7.2227-23.609-13.68-7.8242-27.793-15.48-41.75-22.719-6.6445 5.4805-10.918 10.742-10.918 10.742-8.8984 10.996-25.023 12.695-36.023 3.7969-10.996-8.8945-12.695-25.023-3.7969-36.023 0.003906 0 0.003906-0.003907 0.011719-0.011719 0 0 0.88281-0.86719 2.2891-2.4648-30.238-14.137-53.441-23.383-57.605-22.898-10.23 2.6992-35.332 49.914-29.418 57.777 6.0859 8.0898 205.42 137.5 224.25 132.82 12.582-8.6055 38.734-34.391 44.566-44.039 1.9453-11.566-17.492-29.41-45.977-48.793z" fill="#010101"/>
  <path d="m357.4 314.85c4.1445 0 8.1992-0.79688 12.055-2.3633 16.863-6.8672 24.793-26.684 17.672-44.18-5.3477-13.145-17.691-21.641-31.438-21.641-4.1523 0-8.207 0.79688-12.059 2.3672-8.1914 3.3281-14.527 9.7773-17.863 18.145-3.3203 8.3242-3.25 17.57 0.19531 26.027 5.3438 13.148 17.688 21.645 31.438 21.645z" fill="#010101"/>
  <path d="m221.01 406.79c4.5352 3.6719 11.199 2.9922 14.891-1.5352 0.31641-0.38672 32.336-39.105 61.875-25.312 36.102 16.852 9.4258 77.223 8.9375 78.309-2.4258 5.3203-0.078126 11.598 5.2422 14.023 1.4219 0.65234 2.9258 0.96094 4.3945 0.96094 4.0156 0 7.8633-2.3008 9.6367-6.2031 9.9727-21.863 19.688-62.465 1.7344-88.797l15.441-27.133c5.3945 1.4297 10.75 2.1953 16.035 2.1953 5.0781 0 10.109-0.66406 15.062-1.9844 27.504-7.3477 42.109-32.766 42.715-33.844 2.8672-5.0977 1.0703-11.559-4.0234-14.43-5.1016-2.8672-11.555-1.0703-14.43 4.0273-0.10547 0.1875-11.035 18.793-29.727 23.789-11.035 2.9297-23.055 0.60156-35.754-6.9258-14.996-8.8984-24.035-19.57-26.883-31.715-4.1406-17.668 6.0078-33.594 6.082-33.699 3.2383-4.8711 1.9062-11.445-2.9648-14.68-4.8672-3.2227-11.441-1.9062-14.676 2.9648-0.625 0.9375-15.211 23.316-9.1367 49.938 3.1602 13.836 11.172 26.008 23.793 36.355l-14.727 23.637c-39.578-7.9648-73.523 33.254-75.086 35.195-3.6641 4.5234-2.9648 11.18 1.5664 14.863z" fill="#010101"/>
  <path d="m112.8 336.07 0.046875-0.32031c1.3516-9.3086 4.1523-16.047 6.4062-21.461 3.0703-7.3672 5.2812-12.695 2.1562-19.602-4.6875-10.344-17.289-17.848-29.969-17.848-1.7812 0-3.5508 0.14453-5.2539 0.44531-7.043 1.2188-12.691 4.957-15.484 10.238-2.5664 4.8438-2.5859 10.574-0.066407 16.133 5.0781 11.215 22.527 26.762 41.859 32.328z" fill="#010101"/>
  <path d="m451.91 465c-3.5-8.7031-12.391-14.777-21.621-14.777-1.9727 0-3.9141 0.28125-5.7773 0.82812-6.1523 1.8125-8.8867 6.332-12.684 12.594-2.7852 4.6055-6.2539 10.34-12.156 16.555l-0.17969 0.1875 0.20312 0.16797c8.293 6.7031 20.828 11.043 31.957 11.043 3.25 0 6.1758-0.37109 8.6836-1.1211 5.0469-1.4844 9.0547-4.8359 11.289-9.4492 2.3711-4.9023 2.4648-10.594 0.28516-16.027z" fill="#010101"/>
  <path d="m433.48 533.55c-2.9688-1.8633-5.9727-2.1133-8.5117-2.1133-1.4531 0-2.9883 0.10156-4.6055 0.19531-1.8945 0.11719-3.8594 0.24609-6.0234 0.24609-4.6445 0-11.949-0.53906-21.691-5.1367l-0.30859-0.14063 0.015625 0.34375c0.73047 18.164 6.3945 23.008 15.633 28.812 4.3477 2.7344 9.7383 4.2461 15.164 4.2461 5.7617 0 10.867-1.6719 14.379-4.707 3.043-2.6328 4.5664-6.0859 4.293-9.7266-0.34375-4.5156-3.3828-8.8906-8.3438-12.02z" fill="#010101"/>
  <path d="m130.05 450.19c-5.4062-2.2969-9.6758-4.1055-14.434-4.1055-1.8164 0-3.6172 0.26562-5.5 0.80469-12.652 3.6445-21.566 16.301-19.879 28.227 1.3672 9.6016 9.0898 16.055 19.23 16.055 2.2539 0 4.5664-0.33594 6.8633-0.99609 11.789-3.3984 28.73-16.824 35.562-32.602l0.12891-0.30469-0.32031-0.066406c-9.4805-1.8477-16.23-4.7109-21.652-7.0117z" fill="#010101"/>
  <g>
   <use x="68.753906" y="644.375" xlink:href="#j"/>
   <use x="89.394531" y="644.375" xlink:href="#c"/>
   <use x="103.265625" y="644.375" xlink:href="#a"/>
   <use x="122.339844" y="644.375" xlink:href="#h"/>
   <use x="141.316406" y="644.375" xlink:href="#b"/>
   <use x="154.761719" y="644.375" xlink:href="#a"/>
   <use x="173.835938" y="644.375" xlink:href="#g"/>
   <use x="203.761719" y="644.375" xlink:href="#l"/>
   <use x="223.890625" y="644.375" xlink:href="#k"/>
   <use x="252.015625" y="644.375" xlink:href="#j"/>
   <use x="272.65625" y="644.375" xlink:href="#f"/>
   <use x="282.296875" y="644.375" xlink:href="#v"/>
   <use x="301.371094" y="644.375" xlink:href="#i"/>
   <use x="330.679687" y="644.375" xlink:href="#a"/>
   <use x="349.753906" y="644.375" xlink:href="#e"/>
   <use x="369.773438" y="644.375" xlink:href="#b"/>
   <use x="393.011719" y="644.375" xlink:href="#u"/>
   <use x="414.777344" y="644.375" xlink:href="#f"/>
   <use x="424.417969" y="644.375" xlink:href="#a"/>
   <use x="443.492187" y="644.375" xlink:href="#t"/>
   <use x="461.632812" y="644.375" xlink:href="#h"/>
   <use x="480.613281" y="644.375" xlink:href="#e"/>
   <use x="500.632812" y="644.375" xlink:href="#g"/>
   <use x="520.765625" y="644.375" xlink:href="#c"/>
   <use x="534.636719" y="644.375" xlink:href="#a"/>
   <use x="68.753906" y="672.5" xlink:href="#s"/>
   <use x="80.988281" y="672.5" xlink:href="#c"/>
   <use x="94.859375" y="672.5" xlink:href="#d"/>
   <use x="114.183594" y="672.5" xlink:href="#i"/>
   <use x="153.277344" y="672.5" xlink:href="#b"/>
   <use x="166.722656" y="672.5" xlink:href="#r"/>
   <use x="186.746094" y="672.5" xlink:href="#a"/>
   <use x="215.613281" y="672.5" xlink:href="#q"/>
   <use x="239.148438" y="672.5" xlink:href="#d"/>
   <use x="258.472656" y="672.5" xlink:href="#p"/>
   <use x="278.492188" y="672.5" xlink:href="#e"/>
   <use x="308.308594" y="672.5" xlink:href="#o"/>
   <use x="328.921875" y="672.5" xlink:href="#c"/>
   <use x="342.789062" y="672.5" xlink:href="#d"/>
   <use x="362.113281" y="672.5" xlink:href="#n"/>
   <use x="371.753906" y="672.5" xlink:href="#a"/>
   <use x="390.828125" y="672.5" xlink:href="#m"/>
   <use x="407.5" y="672.5" xlink:href="#b"/>
  </g>
 </g>
</svg>
